<svg data-v-fde0c5aa="" xmlns="http://www.w3.org/2000/svg" viewBox="0 0 300 300" class="font"><!----><defs data-v-fde0c5aa=""><!----></defs><rect data-v-fde0c5aa="" fill="#E6F2FE" x="0" y="0" width="300px" height="300px" class="logo-background-square"></rect><defs data-v-fde0c5aa=""><linearGradient data-v-fde0c5aa="" gradientTransform="rotate(25)" id="585fedd1-9db9-4554-8ae6-2058012af350" x1="0%" y1="0%" x2="100%" y2="0%"><stop data-v-fde0c5aa="" offset="0%" stop-color="#51A4FB" stop-opacity="1"></stop><stop data-v-fde0c5aa="" offset="100%" stop-color="#51A4FB" stop-opacity="1"></stop></linearGradient></defs><g data-v-fde0c5aa="" id="99415b47-9c07-4843-a6e7-f00e1c0ff8a7" fill="url(#585fedd1-9db9-4554-8ae6-2058012af350)" transform="matrix(6.366595017420691,0,0,6.366595017420691,39.37942246125482,114.551500575469)"><path d="M2.25 0.99L2.25 0.99L4.12 5.60C4.28 5.98 4.83 5.98 4.98 5.60L6.87 0.99C6.96 0.74 6.85 0.49 6.61 0.38C6.37 0.29 6.09 0.41 6.01 0.64L4.56 4.19L3.11 0.64C3.01 0.41 2.74 0.29 2.49 0.38C2.27 0.49 2.14 0.74 2.25 0.99ZM8.12 0.64L8.12 0.64L4.56 9.38L0.99 0.64C0.90 0.41 0.63 0.29 0.39 0.38C0.14 0.49 0.04 0.74 0.13 0.99L4.12 10.78C4.28 11.17 4.82 11.17 4.98 10.78L8.97 0.99C9.07 0.74 8.96 0.49 8.72 0.38C8.50 0.29 8.22 0.41 8.12 0.64ZM14.22 5.03L14.22 5.03C16.10 5.03 16.10 2.23 14.22 2.23L12.57 2.23C11.96 2.23 11.96 3.16 12.57 3.16L14.22 3.16C14.87 3.16 14.87 4.10 14.22 4.10C13.86 4.10 13.23 3.99 13.23 4.56C13.23 5.12 13.86 5.03 14.22 5.03ZM11.17 10.16L11.17 10.16L11.17 1.29L14.39 1.29C17.40 1.29 17.40 5.96 14.39 5.96L12.57 5.96C12.32 5.96 12.10 6.17 12.10 6.43L12.10 10.16C12.10 10.78 13.05 10.78 13.05 10.16L13.05 6.90L14.39 6.90C18.62 6.90 18.63 0.36 14.39 0.36L10.70 0.36C10.44 0.36 10.23 0.56 10.23 0.84L10.23 10.16C10.23 10.78 11.17 10.78 11.17 10.16ZM21.20 7.84L21.20 7.84L22.55 7.84C22.82 7.84 23.04 7.63 23.04 7.36C23.04 7.29 23.03 7.24 23.00 7.18L22.32 5.50C22.22 5.28 21.95 5.17 21.70 5.26C21.48 5.35 21.36 5.63 21.45 5.87L21.87 6.90L21.20 6.90C20.94 6.90 20.73 7.10 20.73 7.36C20.73 7.63 20.94 7.84 21.20 7.84ZM20.51 10.26L20.51 10.26L20.75 9.72L23.02 9.72L23.24 10.26C23.34 10.51 23.62 10.61 23.86 10.53C24.09 10.42 24.19 10.15 24.11 9.91L23.77 9.10C23.72 8.92 23.53 8.76 23.32 8.76L20.43 8.76L20.43 8.76C20.26 8.76 20.08 8.89 19.99 9.06L19.66 9.91C19.56 10.15 19.67 10.42 19.91 10.53C20.16 10.61 20.43 10.50 20.51 10.26ZM18.51 10.26L18.51 10.26L21.88 1.76L25.26 10.26C25.35 10.50 25.63 10.61 25.87 10.53C26.11 10.42 26.22 10.15 26.12 9.91L22.32 0.36C22.27 0.25 22.19 0.14 22.05 0.10C21.83 0 21.55 0.11 21.45 0.36L17.63 9.91C17.54 10.15 17.67 10.42 17.89 10.53C18.13 10.61 18.40 10.50 18.51 10.26ZM29.57 4.07L29.57 4.07C29.78 4.42 30.20 4.45 30.41 4.09L32.31 0.90C32.44 0.66 32.37 0.38 32.14 0.25C31.93 0.11 31.64 0.18 31.50 0.41L29.99 2.97L28.48 0.41C28.35 0.18 28.06 0.11 27.85 0.25C27.61 0.38 27.54 0.66 27.68 0.90ZM33.80 0.41L33.80 0.41L30.52 5.63C30.48 5.71 30.45 5.81 30.45 5.89L30.45 10.32C30.45 10.58 30.67 10.79 30.93 10.79C31.18 10.79 31.40 10.58 31.40 10.32L31.40 6.01L34.58 0.90C34.72 0.67 34.65 0.39 34.44 0.25C34.22 0.11 33.94 0.17 33.80 0.41ZM29.53 10.32L29.53 10.32L29.53 5.88C29.53 5.78 29.50 5.70 29.44 5.60L26.19 0.41C26.05 0.17 25.76 0.11 25.55 0.25C25.33 0.39 25.27 0.67 25.40 0.90L28.59 6.01L28.59 10.32C28.59 10.58 28.80 10.79 29.06 10.79C29.32 10.79 29.53 10.58 29.53 10.32Z"></path></g><!----><!----></svg>